<mxfile host="app.diagrams.net" modified="2021-11-22T03:00:06.771Z" agent="5.0 (Windows NT 10.0; Win64; x64) AppleWebKit/537.36 (KHTML, like Gecko) Chrome/96.0.4664.45 Safari/537.36" etag="MSuhscTQniI4UV0bG5f6" version="15.6.6" type="github">
  <diagram id="-HmqK48WhCdUe5ILAbIL" name="Page-1">
    <mxGraphModel dx="1209" dy="627" grid="1" gridSize="10" guides="1" tooltips="1" connect="1" arrows="1" fold="1" page="1" pageScale="1" pageWidth="827" pageHeight="1169" math="0" shadow="0">
      <root>
        <mxCell id="0" />
        <mxCell id="1" parent="0" />
        <mxCell id="VsFd__ty3bcOsws0WfjS-2" value="&lt;font style=&quot;font-size: 18px&quot;&gt;Lambda&lt;br&gt;index.js&lt;/font&gt;" style="outlineConnect=0;dashed=0;verticalLabelPosition=bottom;verticalAlign=top;align=center;html=1;shape=mxgraph.aws3.lambda_function;fillColor=#F58534;gradientColor=none;" parent="1" vertex="1">
          <mxGeometry x="540" y="290" width="69" height="72" as="geometry" />
        </mxCell>
        <mxCell id="VsFd__ty3bcOsws0WfjS-3" value="&lt;font style=&quot;font-size: 18px&quot;&gt;S3 bucket&lt;br&gt;index.zip&lt;/font&gt;" style="outlineConnect=0;dashed=0;verticalLabelPosition=bottom;verticalAlign=top;align=center;html=1;shape=mxgraph.aws3.bucket_with_objects;fillColor=#E05243;gradientColor=none;strokeColor=default;fontColor=default;" parent="1" vertex="1">
          <mxGeometry x="700" y="213.25" width="60" height="61.5" as="geometry" />
        </mxCell>
        <mxCell id="VsFd__ty3bcOsws0WfjS-4" value="" style="outlineConnect=0;dashed=0;verticalLabelPosition=bottom;verticalAlign=top;align=center;html=1;shape=mxgraph.aws3.android;fillColor=#8CC64F;gradientColor=none;strokeColor=default;fontColor=default;" parent="1" vertex="1">
          <mxGeometry x="715" y="230" width="30" height="38" as="geometry" />
        </mxCell>
        <mxCell id="VsFd__ty3bcOsws0WfjS-5" value="" style="shape=image;html=1;verticalAlign=top;verticalLabelPosition=bottom;labelBackgroundColor=#ffffff;imageAspect=0;aspect=fixed;image=https://cdn0.iconfinder.com/data/icons/logos-brands-in-colors/128/react-128.png" parent="1" vertex="1">
          <mxGeometry x="135" y="220" width="48" height="48" as="geometry" />
        </mxCell>
        <mxCell id="VsFd__ty3bcOsws0WfjS-6" value="API Gateway&lt;br&gt;" style="points=[[0,0,0],[0.25,0,0],[0.5,0,0],[0.75,0,0],[1,0,0],[0,1,0],[0.25,1,0],[0.5,1,0],[0.75,1,0],[1,1,0],[0,0.25,0],[0,0.5,0],[0,0.75,0],[1,0.25,0],[1,0.5,0],[1,0.75,0]];outlineConnect=0;fontColor=#232F3E;gradientColor=#FF4F8B;gradientDirection=north;fillColor=#BC1356;strokeColor=#ffffff;dashed=0;verticalLabelPosition=bottom;verticalAlign=top;align=center;html=1;fontSize=12;fontStyle=0;aspect=fixed;shape=mxgraph.aws4.resourceIcon;resIcon=mxgraph.aws4.api_gateway;" parent="1" vertex="1">
          <mxGeometry x="360" y="290" width="78" height="78" as="geometry" />
        </mxCell>
        <mxCell id="VsFd__ty3bcOsws0WfjS-7" value="" style="dashed=0;outlineConnect=0;html=1;align=center;labelPosition=center;verticalLabelPosition=bottom;verticalAlign=top;shape=mxgraph.weblogos.java" parent="1" vertex="1">
          <mxGeometry x="141.8" y="302" width="38.2" height="65" as="geometry" />
        </mxCell>
        <mxCell id="VsFd__ty3bcOsws0WfjS-10" value="" style="shape=image;html=1;verticalAlign=top;verticalLabelPosition=bottom;labelBackgroundColor=#ffffff;imageAspect=0;aspect=fixed;image=https://cdn4.iconfinder.com/data/icons/logos-and-brands/512/267_Python_logo-128.png" parent="1" vertex="1">
          <mxGeometry x="135.75" y="405.25" width="46.5" height="46.5" as="geometry" />
        </mxCell>
        <mxCell id="VsFd__ty3bcOsws0WfjS-11" value="&lt;font style=&quot;font-size: 18px&quot;&gt;IAM&lt;/font&gt;" style="outlineConnect=0;dashed=0;verticalLabelPosition=bottom;verticalAlign=top;align=center;html=1;shape=mxgraph.aws3.iam;fillColor=#759C3E;gradientColor=none;strokeColor=default;fontColor=default;" parent="1" vertex="1">
          <mxGeometry x="703" y="340" width="42" height="81" as="geometry" />
        </mxCell>
        <mxCell id="VsFd__ty3bcOsws0WfjS-15" value="" style="verticalLabelPosition=bottom;html=1;verticalAlign=top;strokeWidth=1;align=center;outlineConnect=0;dashed=0;outlineConnect=0;shape=mxgraph.aws3d.dashedEdgeDouble;fillColor=#000000;aspect=fixed;strokeColor=default;fontColor=default;rotation=0;" parent="1" vertex="1">
          <mxGeometry x="615.87" y="340" width="70.22" height="40" as="geometry" />
        </mxCell>
        <mxCell id="VsFd__ty3bcOsws0WfjS-17" value="" style="verticalLabelPosition=bottom;html=1;verticalAlign=top;strokeWidth=1;align=center;outlineConnect=0;dashed=0;outlineConnect=0;shape=mxgraph.aws3d.dashedEdgeDouble;fillColor=#000000;aspect=fixed;rotation=-235;strokeColor=default;fontColor=default;" parent="1" vertex="1">
          <mxGeometry x="610" y="255.32" width="81.96" height="46.68" as="geometry" />
        </mxCell>
        <mxCell id="VsFd__ty3bcOsws0WfjS-19" value="" style="verticalLabelPosition=bottom;html=1;verticalAlign=top;strokeWidth=1;align=center;outlineConnect=0;dashed=0;outlineConnect=0;shape=mxgraph.aws3d.dashedEdgeDouble;fillColor=#000000;aspect=fixed;rotation=-30;" parent="1" vertex="1">
          <mxGeometry x="440.73" y="302" width="99.27" height="56.55" as="geometry" />
        </mxCell>
        <mxCell id="VsFd__ty3bcOsws0WfjS-22" value="" style="shape=curlyBracket;whiteSpace=wrap;html=1;rounded=1;flipH=1;" parent="1" vertex="1">
          <mxGeometry x="188" y="234.5" width="20" height="200" as="geometry" />
        </mxCell>
        <mxCell id="VsFd__ty3bcOsws0WfjS-24" value="&lt;font style=&quot;font-size: 18px&quot;&gt;Dynamic API calls &lt;br&gt;&lt;br&gt;over HTTPS&lt;/font&gt;" style="html=1;shadow=0;dashed=0;align=center;verticalAlign=middle;shape=mxgraph.arrows2.twoWayArrow;dy=0.6;dx=35;" parent="1" vertex="1">
          <mxGeometry x="210" y="329" width="140" height="11" as="geometry" />
        </mxCell>
        <mxCell id="qiM--PFQDSTozMKqdRrz-2" value="Amazon CloudWatch" style="sketch=0;outlineConnect=0;fontColor=#232F3E;gradientColor=none;strokeColor=#ffffff;fillColor=#232F3E;dashed=0;verticalLabelPosition=middle;verticalAlign=bottom;align=center;html=1;whiteSpace=wrap;fontSize=10;fontStyle=1;spacing=3;shape=mxgraph.aws4.productIcon;prIcon=mxgraph.aws4.cloudwatch;" parent="1" vertex="1">
          <mxGeometry x="438" y="196.37" width="80" height="110" as="geometry" />
        </mxCell>
        <mxCell id="qiM--PFQDSTozMKqdRrz-3" value="" style="verticalLabelPosition=bottom;html=1;verticalAlign=top;strokeWidth=1;align=center;outlineConnect=0;dashed=0;outlineConnect=0;shape=mxgraph.aws3d.dashedEdgeDouble;fillColor=#000000;aspect=fixed;rotation=115;strokeColor=default;fontColor=default;" parent="1" vertex="1">
          <mxGeometry x="371.14" y="242.8" width="59.11" height="33.67" as="geometry" />
        </mxCell>
        <mxCell id="qiM--PFQDSTozMKqdRrz-4" value="" style="verticalLabelPosition=bottom;html=1;verticalAlign=top;strokeWidth=1;align=center;outlineConnect=0;dashed=0;outlineConnect=0;shape=mxgraph.aws3d.dashedEdgeDouble;fillColor=#000000;aspect=fixed;rotation=15;strokeColor=default;fontColor=default;" parent="1" vertex="1">
          <mxGeometry x="520.66" y="243.99" width="58.15" height="33.13" as="geometry" />
        </mxCell>
      </root>
    </mxGraphModel>
  </diagram>
</mxfile>
